<?xml version="1.0" standalone="no"?>
<!DOCTYPE svg PUBLIC "-//W3C//DTD SVG 20010904//EN"
 "http://www.w3.org/TR/2001/REC-SVG-20010904/DTD/svg10.dtd">
<svg version="1.0" xmlns="http://www.w3.org/2000/svg"
 width="1024.000000pt" height="576.000000pt" viewBox="0 0 1024.000000 576.000000"
 preserveAspectRatio="xMidYMid meet">
<metadata>
Created by potrace 1.16, written by Peter Selinger 2001-2019
</metadata>
<g transform="translate(0.000000,576.000000) scale(0.100000,-0.100000)"
fill="#000000" stroke="none">
<path d="M4860 4831 c0 -108 -3 -409 -7 -668 l-6 -473 156 0 157 0 0 220 0
220 69 0 69 0 118 -220 119 -220 572 0 573 0 0 145 0 145 -222 1 c-123 1 -230
2 -238 3 -8 2 -50 3 -92 4 l-78 2 0 120 0 120 230 0 230 0 0 130 0 130 -227 2
-228 3 -3 113 -3 112 269 0 269 0 36 -102 c20 -57 93 -272 162 -478 70 -206
132 -391 140 -410 l13 -35 173 -8 c96 -4 185 -6 197 -5 19 2 28 15 43 58 11
30 67 192 125 360 58 168 121 348 139 400 19 52 46 130 61 174 14 43 46 135
70 204 24 70 42 127 41 128 -1 1 -75 4 -164 6 l-163 5 -69 -216 c-38 -119 -93
-290 -121 -381 -104 -331 -123 -390 -126 -387 -2 2 -33 99 -69 217 -128 418
-167 546 -202 658 l-36 112 -548 0 -549 0 0 -71 0 -71 -37 33 c-48 42 -143 84
-218 98 -33 6 -187 12 -342 14 l-283 4 0 -196z m607 -127 c45 -34 65 -77 66
-142 0 -66 -21 -118 -61 -147 -23 -17 -46 -20 -169 -23 l-143 -3 0 164 c0 90
3 167 7 171 4 4 67 6 140 4 115 -3 135 -6 160 -24z m271 -657 l-3 -71 -61 107
-62 106 53 30 c29 17 57 36 62 43 9 15 15 -105 11 -215z"/>
<path d="M3779 4767 c-14 -12 -45 -38 -68 -57 -48 -39 -96 -81 -126 -110 -12
-11 -26 -20 -33 -20 -7 0 -12 -4 -12 -8 0 -5 -64 -60 -142 -123 -78 -63 -154
-125 -169 -139 -15 -14 -39 -34 -53 -45 -15 -11 -37 -29 -49 -41 -12 -11 -47
-40 -77 -65 -29 -24 -67 -56 -84 -71 -16 -15 -75 -64 -130 -110 l-102 -83 97
-115 c52 -63 254 -307 448 -542 194 -236 355 -428 358 -428 2 0 30 22 61 49
50 42 381 316 852 704 80 66 151 126 159 133 11 10 9 18 -15 51 -15 21 -35 45
-44 53 -9 8 -95 111 -190 229 -189 233 -195 241 -227 275 -13 13 -23 28 -23
35 0 6 -4 11 -8 11 -5 0 -71 77 -148 172 -76 95 -148 183 -159 195 -11 13 -29
34 -40 48 -25 30 -42 31 -76 2z"/>
<path d="M4863 3280 c-12 -5 -27 -19 -33 -31 -20 -37 1 -65 66 -86 31 -10 62
-26 68 -35 30 -48 -65 -80 -110 -37 -26 24 -38 22 -28 -5 8 -20 55 -46 84 -46
34 0 79 29 86 54 9 38 -11 63 -68 81 -64 21 -78 31 -78 56 0 41 90 47 111 8
11 -22 29 -25 29 -6 0 37 -81 67 -127 47z"/>
<path d="M5283 3280 c-12 -5 -27 -19 -33 -31 -20 -37 1 -65 66 -86 31 -10 62
-26 68 -35 30 -48 -65 -80 -110 -37 -26 24 -38 22 -28 -5 8 -20 55 -46 84 -46
34 0 79 29 86 54 9 38 -11 63 -68 81 -64 21 -78 31 -78 56 0 41 90 47 111 8
11 -22 29 -25 29 -6 0 37 -81 67 -127 47z"/>
<path d="M5670 3165 c0 -104 2 -125 15 -125 12 0 15 13 15 55 l0 55 70 0 70 0
0 -55 c0 -42 3 -55 15 -55 13 0 15 21 15 125 0 104 -2 125 -15 125 -12 0 -15
-13 -15 -55 l0 -55 -70 0 -70 0 0 55 c0 42 -3 55 -15 55 -13 0 -15 -21 -15
-125z"/>
<path d="M6020 3165 c0 -104 2 -125 15 -125 12 0 15 18 15 101 l0 102 77 -102
c42 -55 83 -101 90 -101 10 0 13 28 13 125 0 104 -2 125 -15 125 -12 0 -15
-18 -15 -101 l0 -102 -77 102 c-42 55 -83 101 -90 101 -10 0 -13 -28 -13 -125z"/>
<path d="M6440 3272 c-65 -32 -86 -116 -45 -179 22 -32 80 -56 122 -50 35 6
93 42 93 58 0 15 -20 10 -47 -11 -17 -13 -41 -20 -68 -20 -36 0 -48 5 -69 31
-17 19 -26 43 -26 64 0 21 9 45 26 64 21 26 33 31 69 31 28 0 51 -7 69 -21 28
-22 42 -20 33 4 -7 18 -68 47 -99 47 -12 0 -39 -8 -58 -18z"/>
<path d="M6940 3165 l0 -125 85 0 c69 0 85 3 85 15 0 12 -14 15 -70 15 l-70 0
0 45 0 45 55 0 c30 0 55 5 55 10 0 6 -25 10 -55 10 l-55 0 0 40 0 39 67 3 c42
2 68 8 71 16 3 9 -18 12 -82 12 l-86 0 0 -125z"/>
<path d="M7160 3165 c0 -104 2 -125 15 -125 12 0 15 18 15 101 l0 102 77 -102
c42 -55 83 -101 90 -101 10 0 13 28 13 125 0 104 -2 125 -15 125 -12 0 -15
-18 -15 -101 l0 -102 -77 102 c-42 55 -83 101 -90 101 -10 0 -13 -28 -13 -125z"/>
<path d="M5700 2843 c-92 -47 -87 -180 7 -220 102 -42 202 58 160 160 -28 65
-104 93 -167 60z m111 -26 c23 -17 39 -52 39 -82 0 -58 -36 -94 -95 -94 -59 0
-95 36 -95 94 0 58 36 94 95 94 22 0 47 -5 56 -12z"/>
<path d="M5920 2735 c0 -104 2 -125 15 -125 11 0 15 12 15 50 0 49 1 50 30 50
26 0 34 -7 58 -50 15 -27 33 -50 40 -50 17 0 16 5 -13 55 l-26 43 26 26 c27
27 30 41 16 79 -11 29 -56 47 -117 47 l-44 0 0 -125z"/>
<path d="M6480 2735 c0 -103 3 -125 15 -125 11 0 15 20 17 96 l3 95 38 -65
c21 -36 40 -66 42 -66 2 0 21 30 42 66 l38 65 3 -95 c2 -76 6 -96 17 -96 12 0
15 22 15 125 0 151 -8 157 -69 50 -24 -41 -44 -75 -46 -75 -2 0 -22 34 -46 75
-61 107 -69 101 -69 -50z"/>
<path d="M6793 2738 c23 -67 47 -123 53 -125 7 -2 24 36 40 89 l30 92 28 -92
c17 -55 33 -91 40 -89 6 2 30 58 53 125 32 91 39 122 28 122 -9 0 -26 -36 -46
-99 -18 -55 -36 -98 -39 -96 -4 2 -17 38 -29 80 -14 45 -28 75 -36 75 -8 0
-22 -30 -36 -75 -12 -42 -25 -78 -29 -80 -3 -2 -21 41 -39 96 -20 63 -37 99
-46 99 -11 0 -4 -31 28 -122z"/>
<path d="M7166 2852 c-5 -8 -31 -68 -92 -209 -20 -47 7 -45 29 2 16 34 18 35
77 35 60 0 61 0 76 -35 8 -19 21 -35 29 -35 10 0 -1 35 -40 122 -51 117 -66
140 -79 120z"/>
<path d="M7330 2735 c0 -104 2 -125 15 -125 11 0 15 12 15 50 0 49 1 50 30 50
26 0 34 -7 58 -50 15 -27 33 -50 40 -50 17 0 16 5 -13 55 l-26 43 26 26 c27
27 30 41 16 79 -11 29 -56 47 -117 47 l-44 0 0 -125z"/>
<path d="M7560 2735 l0 -125 85 0 c69 0 85 3 85 15 0 12 -14 15 -70 15 l-70 0
0 45 0 45 55 0 c30 0 55 5 55 10 0 6 -25 10 -55 10 l-55 0 0 40 0 39 67 3 c42
2 68 8 71 16 3 9 -18 12 -82 12 l-86 0 0 -125z"/>
<path d="M7860 2735 c0 -104 2 -125 15 -125 12 0 15 13 15 55 l0 55 70 0 70 0
0 -55 c0 -42 3 -55 15 -55 13 0 15 21 15 125 0 104 -2 125 -15 125 -12 0 -15
-13 -15 -55 l0 -55 -70 0 -70 0 0 55 c0 42 -3 55 -15 55 -13 0 -15 -21 -15
-125z"/>
<path d="M8180 2843 c-92 -47 -87 -180 7 -220 102 -42 202 58 160 160 -28 65
-104 93 -167 60z m111 -26 c23 -17 39 -52 39 -82 0 -58 -36 -94 -95 -94 -59 0
-95 36 -95 94 0 58 36 94 95 94 22 0 47 -5 56 -12z"/>
<path d="M8410 2735 c0 -104 2 -125 15 -125 11 0 15 12 15 50 0 49 1 50 30 50
26 0 34 -7 58 -50 15 -27 33 -50 40 -50 17 0 16 5 -13 55 l-26 43 26 26 c27
27 30 41 16 79 -11 29 -56 47 -117 47 l-44 0 0 -125z"/>
<path d="M8712 2848 c3 -8 32 -15 80 -18 l76 -5 -79 -98 c-43 -54 -79 -102
-79 -108 0 -5 44 -9 100 -9 82 0 100 3 100 15 0 12 -15 15 -75 15 -41 0 -75 3
-75 6 0 3 34 45 75 94 41 49 75 96 75 104 0 14 -16 16 -101 16 -76 0 -100 -3
-97 -12z"/>
<path d="M9010 2843 c-92 -47 -87 -180 7 -220 102 -42 202 58 160 160 -28 65
-104 93 -167 60z m111 -26 c23 -17 39 -52 39 -82 0 -58 -36 -94 -95 -94 -59 0
-95 36 -95 94 0 58 36 94 95 94 22 0 47 -5 56 -12z"/>
<path d="M9240 2735 c0 -104 2 -125 15 -125 12 0 15 18 15 101 l0 102 77 -102
c42 -55 83 -101 90 -101 10 0 13 28 13 125 0 104 -2 125 -15 125 -12 0 -15
-18 -15 -101 l0 -102 -77 102 c-42 55 -83 101 -90 101 -10 0 -13 -28 -13 -125z"/>
<path d="M1918 1189 c-10 -6 -8 -14 8 -36 18 -24 31 -29 81 -34 65 -6 117 -35
128 -69 4 -11 19 -27 34 -35 28 -14 28 -14 40 24 6 21 11 41 11 44 0 4 -22 18
-50 32 -113 57 -225 90 -252 74z"/>
<path d="M1897 1120 c-3 -11 -18 -25 -34 -32 -15 -7 -30 -13 -32 -15 -11 -8
42 -64 151 -159 68 -59 131 -118 142 -131 l19 -24 23 41 c21 37 22 44 10 68
-8 15 -72 82 -144 149 -108 102 -131 119 -135 103z"/>
<path d="M3430 1045 c0 -97 18 -116 22 -24 l3 61 44 -61 c25 -33 48 -61 53
-61 4 0 28 27 53 61 25 34 45 57 46 53 0 -5 1 -29 2 -54 3 -81 22 -60 25 28 4
104 -8 106 -73 11 l-49 -70 -18 23 c-10 13 -33 44 -50 70 -48 70 -58 64 -58
-37z"/>
<path d="M1815 898 c-9 -22 -15 -42 -13 -43 15 -13 155 -76 197 -89 58 -17
121 -21 121 -8 0 5 -14 21 -30 37 -26 24 -37 28 -78 27 -57 -3 -103 22 -133
72 -30 50 -45 51 -64 4z"/>
</g>
</svg>
